#!OML:ASF F:\VICON\USERDATA\INSTALL\Justin_Nancy\Justin_Nancy.ASF
:FULLY-SPECIFIED
:DEGREES
291
root 0.24335 16.5982 36.0113 -0.0136141 -3.03137 -3.7533
lowerback 4.47588 3.01919 4.35426
upperback 0.567598 4.28891 2.77137
thorax -1.81541 2.116 0.16554
lowerneck -17.5035 -4.08926 -9.31175
upperneck 21.3247 -4.53418 5.96954
head 10.039 -2.1688 3.02698
rclavicle 5.06901e-015 -2.78299e-014
rhumerus -19.6419 -5.28631 -77.6107
rradius 41.5791
rwrist -1.6081
rhand -16.8067 13.007
rfingers 7.12502
rthumb 9.42184 -16.7624
lclavicle 5.06901e-015 -2.78299e-014
lhumerus -38.5956 14.2056 81.8796
lradius 17.1658
lwrist -19.042
lhand -9.33709 29.0425
lfingers 7.12502
lthumb 16.6219 58.3507
rfemur 19.5246 5.1916 30.4369
rtibia 23.595
rfoot -9.31182 -2.0779
rtoes -18.3093
lfemur -34.2516 -4.30313 -15.5077
ltibia 28.0134
lfoot -3.11891 1.49424
ltoes -15.8512
292
root 0.267547 16.6157 36.2929 -0.048636 -2.97114 -3.42109
lowerback 4.49407 3.03306 4.20958
upperback 0.290168 4.31306 2.65379
thorax -2.11258 2.12107 0.112804
lowerneck -16.91 -4.72276 -9.7447
upperneck 21.1408 -5.41648 6.21733
head 9.96101 -2.59223 3.0634
rclavicle 2.92462e-014 -1.59028e-015
rhumerus -20.1836 -5.67145 -77.5434
rradius 41.315
rwrist -2.00884
rhand -16.6356 13.2339
rfingers 7.12502
rthumb 9.58693 -16.5279
lclavicle 2.92462e-014 -1.59028e-015
lhumerus -39.1613 14.7337 81.3034
lradius 16.3375
lwrist -20.0441
lhand -9.25787 28.2008
lfingers 7.12502
lthumb 16.6982 57.5026
rfemur 18.885 4.82096 29.7563
rtibia 25.9746
rfoot -6.9823 -1.03404
rtoes -18.4831
lfemur -34.1615 -4.29424 -16.0484
ltibia 29.1373
lfoot -2.2658 0.27063
ltoes -12.7467
293
root 0.285254 16.6369 36.5689 -0.135306 -2.99872 -2.65543
lowerback 4.48599 3.04003 3.49653
upperback 0.116943 4.28955 2.43801
thorax -2.32237 2.11144 0.280901
lowerneck -16.735 -4.1476 -9.80795
upperneck 21.7895 -4.67014 6.36346
head 10.0961 -2.24434 3.2453
rclavicle 1.67725e-015 -1.98785e-014
rhumerus -20.5804 -5.93741 -77.579
rradius 41.0893
rwrist -2.06652
rhand -16.8444 13.1853
rfingers 7.12502
rthumb 9.38547 -16.5857
lclavicle 1.67725e-015 -1.98785e-014
lhumerus -39.6658 15.1449 80.8007
lradius 15.861
lwrist -20.831
lhand -8.75247 27.9478
lfingers 7.12502
lthumb 17.1847 57.2079
rfemur 17.785 4.58352 28.622
rtibia 29.0739
rfoot -3.83968 0.134345
rtoes -17.3758
lfemur -33.7822 -4.05715 -17.1048
ltibia 30.1018
lfoot -1.9817 -1.13003
ltoes -9.52543
294
root 0.301375 16.6541 36.8445 -0.361318 -2.96101 -1.65207
lowerback 4.65585 3.07095 2.60801
upperback -0.0476826 4.29173 2.13465
thorax -2.62827 2.11701 0.445208
lowerneck -16.5767 -3.9758 -9.78115
upperneck 22.2734 -4.4743 6.37771
head 10.2209 -2.15702 3.28351
rclavicle -1.42628e-014 7.95139e-016
rhumerus -21.3988 -6.52836 -77.58
rradius 41.2189
rwrist -1.99942
rhand -17.0325 13.2117
rfingers 7.12502
rthumb 9.20394 -16.5674
lclavicle -1.42628e-014 7.95139e-016
lhumerus -39.9615 16.246 79.8236
lradius 14.8877
lwrist -22.4732
lhand -9.34182 27.3203
lfingers 7.12502
lthumb 16.6174 56.6289
rfemur 16.4503 4.2112 27.1387
rtibia 32.6936
rfoot -0.1106 1.23575
rtoes -15.2878
lfemur -33.0708 -3.48796 -18.6445
ltibia 30.9709
lfoot -1.47523 -1.95385
ltoes -9.12597
295
root 0.306197 16.6671 37.0923 -0.617341 -3.07818 -1.0012
lowerback 5.09839 3.19432 1.97635
upperback -0.156406 4.43494 1.92595
thorax -3.01808 2.19131 0.540253
lowerneck -16.5448 -4.20182 -9.92281
upperneck 22.5685 -4.82018 6.5729
head 10.3629 -2.30883 3.33332
rclavicle -3.11719e-014 -1.03368e-014
rhumerus -22.0595 -7.26261 -77.5932
rradius 41.1235
rwrist -2.03515
rhand -17.2454 13.0802
rfingers 7.12502
rthumb 8.99856 -16.7079
lclavicle -3.11719e-014 -1.03368e-014
lhumerus -40.0877 17.6339 78.6694
lradius 13.9778
lwrist -24.4742
lhand -9.60058 26.9034
lfingers 7.12502
lthumb 16.3682 56.2327
rfemur 14.7811 4.18211 26.222
rtibia 36.4599
rfoot 4.25659 1.8047
rtoes -14.7776
lfemur -32.4062 -2.83221 -19.6863
ltibia 31.8395
lfoot -1.27188 -2.08984
ltoes -9.60083
296
root 0.30912 16.6887 37.3273 -0.781857 -3.3331 -0.880839
lowerback 5.48705 3.29967 1.87391
upperback -0.139176 4.57932 1.8709
thorax -3.22135 2.262 0.505786
lowerneck -16.7879 -4.80658 -10.385
upperneck 22.6591 -5.65374 7.06021
head 10.5534 -2.67117 3.46383
rclavicle 5.89148e-014 7.95139e-015
rhumerus -22.139 -8.03882 -77.6628
rradius 40.5833
rwrist -1.79378
rhand -17.257 13.2281
rfingers 7.12502
rthumb 8.98731 -16.5605
lclavicle 5.89148e-014 7.95139e-015
lhumerus -40.1501 19.0207 77.626
lradius 13.6002
lwrist -26.1991
lhand -8.83294 26.9451
lfingers 7.12502
lthumb 17.1072 56.2119
rfemur 12.908 4.32884 25.9292
rtibia 40.1128
rfoot 8.50572 2.2197
rtoes -13.4568
lfemur -31.9339 -2.18716 -20.0374
ltibia 32.7396
lfoot -1.66172 -2.43267
ltoes -8.58917
297
root 0.318188 16.7159 37.5801 -1.0382 -3.56339 -0.941857
lowerback 5.86652 3.3453 2.04689
upperback -0.0681129 4.66173 1.87907
thorax -3.34751 2.29846 0.39027
lowerneck -16.888 -4.01955 -10.0231
upperneck 22.7088 -4.53074 6.67603
head 10.4565 -2.1677 3.42978
rclavicle -2.75193e-014 -7.15625e-015
rhumerus -22.4206 -8.7066 -77.7369
rradius 40.4212
rwrist -1.50017
rhand -17.2407 13.2062
rfingers 7.12502
rthumb 9.00307 -16.5817
lclavicle -2.75193e-014 -7.15625e-015
lhumerus -40.417 20.4005 76.5784
lradius 13.4414
lwrist -27.4627
lhand -8.12547 27.2295
lfingers 7.12502
lthumb 17.7881 56.4359
rfemur 11.2952 4.27957 25.7451
rtibia 43.5822
rfoot 12.1737 2.49022
rtoes -11.2011
lfemur -31.2745 -1.75552 -20.2144
ltibia 33.6123
lfoot -2.13132 -2.94486
ltoes -6.27575
298
root 0.332346 16.748 37.8401 -1.32963 -3.85004 -1.00886
lowerback 6.28163 3.37762 2.30864
upperback -0.10659 4.73841 1.8674
thorax -3.59777 2.32805 0.198824
lowerneck -16.6023 -4.19131 -10.1524
upperneck 22.3179 -4.73085 6.59695
head 10.2823 -2.2818 3.38845
rclavicle 5.18083e-015 -8.74653e-015
rhumerus -23.1461 -9.08874 -77.8286
rradius 40.5044
rwrist -1.4132
rhand -17.1524 12.8454
rfingers 7.12502
rthumb 9.08828 -16.9388
lclavicle 5.18083e-015 -8.74653e-015
lhumerus -40.8947 20.9826 75.9302
lradius 13.4014
lwrist -27.8973
lhand -8.47268 26.9171
lfingers 7.12502
lthumb 17.454 56.1536
rfemur 9.75058 4.14491 25.4957
rtibia 46.8359
rfoot 15.4183 2.71011
rtoes -9.67038
lfemur -30.4179 -1.32172 -20.4036
ltibia 34.3761
lfoot -2.52593 -3.13276
ltoes -3.18475
299
root 0.344951 16.7693 38.0883 -1.63957 -4.1039 -0.702027
lowerback 6.60678 3.4201 2.13939
upperback -0.0571725 4.78895 1.78336
thorax -3.73485 2.35358 0.181908
lowerneck -16.3729 -4.59438 -10.212
upperneck 21.8866 -5.27753 6.54568
head 10.1377 -2.54521 3.29561
rclavicle 2.78795e-014 1.11319e-014
rhumerus -23.5759 -9.32494 -77.9261
rradius 40.3298
rwrist -1.31328
rhand -17.1821 12.8089
rfingers 7.12502
rthumb 9.05965 -16.9765
lclavicle 2.78795e-014 1.11319e-014
lhumerus -41.2374 21.0357 75.7223
lradius 13.4422
lwrist -28.3164
lhand -9.53636 25.7478
lfingers 7.12502
lthumb 16.4301 55.072
rfemur 8.14642 4.01409 24.8756
rtibia 49.9491
rfoot 18.7873 2.7691
rtoes -7.27753
lfemur -29.4162 -0.93839 -20.9988
ltibia 34.9329
lfoot -2.97372 -3.05787
ltoes -0.941356
300
root 0.354471 16.7929 38.3346 -1.92881 -4.23115 -0.115785
lowerback 6.68197 3.38183 1.60689
upperback 0.234634 4.6876 1.6945
thorax -3.5102 2.31524 0.400527
lowerneck -16.7805 -4.60718 -10.249
upperneck 21.7022 -5.21677 6.47672
head 10.1423 -2.51928 3.27829
rclavicle -3.95085e-015 8.74653e-015
rhumerus -23.5143 -9.33133 -78.0888
rradius 40.2273
rwrist -1.30862
rhand -17.144 12.3655
rfingers 7.12502
rthumb 9.09635 -17.4184
lclavicle -3.95085e-015 8.74653e-015
lhumerus -41.6087 22.8321 74.5063
lradius 13.0323
lwrist -31.509
lhand -11.8598 22.7699
lfingers 7.12502
lthumb 14.1921 52.2651
rfemur 6.42144 3.78077 23.9741
rtibia 53.0276
rfoot 21.8307 2.37041
rtoes -2.58115
lfemur -28.2223 -0.785611 -21.8647
ltibia 35.1681
lfoot -3.54142 -2.99537
ltoes -0.153245
